<?xml version="1.0" standalone="no"?>
<!DOCTYPE svg PUBLIC "-//W3C//DTD SVG 20010904//EN"
 "http://www.w3.org/TR/2001/REC-SVG-20010904/DTD/svg10.dtd">
<svg version="1.0" xmlns="http://www.w3.org/2000/svg"
 width="453.000000pt" height="453.000000pt" viewBox="0 0 453.000000 453.000000"
 preserveAspectRatio="xMidYMid meet">

<g transform="translate(0.000000,453.000000) scale(0.100000,-0.100000)"
fill="#000000" stroke="none">
<path d="M2129 4499 c-11 -6 -8 -9 9 -9 12 0 22 -5 22 -10 0 -7 -13 -8 -36 -4
-26 5 -39 3 -46 -7 -7 -10 -7 -8 -3 9 8 28 6 28 -150 2 -217 -35 -447 -102
-453 -131 -1 -8 11 -28 27 -44 37 -36 38 -42 9 -41 -19 1 -23 -4 -23 -29 0
-23 5 -31 23 -33 27 -4 28 -13 2 -43 l-19 -24 -1 23 c0 12 -4 22 -10 22 -13 0
-13 -65 0 -109 6 -22 6 -39 0 -46 -10 -12 -19 -126 -25 -302 -1 -61 -6 -116
-9 -122 -9 -14 11 -51 26 -48 6 1 13 -4 15 -10 3 -8 -4 -13 -17 -13 -13 0 -24
-8 -27 -20 -3 -11 -10 -20 -15 -20 -9 0 -2 305 7 321 13 19 25 363 18 467 -7
85 4 84 -148 12 -184 -88 -303 -163 -463 -293 -56 -46 -62 -54 -57 -79 7 -31
-8 -38 -23 -11 -8 14 -20 5 -78 -54 -38 -38 -91 -93 -117 -123 l-48 -53 37
-13 c38 -13 89 -9 112 9 9 7 12 3 12 -17 0 -28 -3 -29 -75 -31 -143 -4 -130 1
-169 -62 -19 -32 -44 -69 -55 -83 -33 -41 -83 -139 -76 -150 4 -6 1 -9 -7 -8
-9 2 -12 -7 -11 -32 1 -26 0 -30 -6 -15 -7 16 -13 10 -39 -44 -26 -53 -29 -67
-20 -87 l12 -25 12 28 13 28 -6 -30 c-3 -16 -11 -40 -19 -51 -7 -12 -10 -24
-7 -28 9 -9 53 42 53 61 0 24 23 83 32 83 4 0 8 -6 8 -12 0 -9 3 -8 10 2 12
19 18 12 20 -25 3 -46 1 -55 -14 -55 -7 0 -33 -18 -57 -40 -24 -22 -47 -40
-51 -40 -9 0 -58 -86 -58 -103 0 -8 -9 -24 -20 -37 -11 -13 -20 -31 -20 -41 0
-10 -9 -24 -20 -32 -19 -14 -45 -75 -35 -85 2 -3 10 8 17 23 l12 27 9 -24 9
-23 10 25 c6 14 10 35 9 47 -1 11 11 47 27 80 33 63 71 115 72 96 0 -25 16
-13 29 22 7 19 17 35 23 35 6 0 7 -7 3 -17 -14 -34 -17 -63 -7 -63 17 0 32 35
32 73 0 40 26 70 40 46 5 -8 12 -34 16 -58 6 -40 4 -46 -20 -63 -14 -11 -26
-24 -26 -29 0 -5 10 -1 22 11 25 23 37 25 39 8 1 -7 4 1 8 17 4 17 4 32 0 35
-12 9 -21 120 -10 120 6 0 11 7 11 15 0 8 6 15 13 15 8 0 24 9 37 20 16 14 27
17 35 10 6 -5 14 -8 17 -5 3 3 11 -1 18 -10 16 -19 30 -19 30 0 0 8 7 15 15
15 11 0 15 -12 15 -42 l1 -43 19 40 c10 22 21 57 25 78 3 21 9 36 13 33 4 -2
8 7 8 20 1 13 4 31 8 39 7 20 36 19 36 -1 0 -9 7 -28 16 -43 15 -26 15 -30 -5
-69 -11 -22 -17 -43 -12 -47 11 -6 41 33 41 52 0 17 20 17 20 1 0 -7 6 -4 12
7 6 11 11 38 11 60 -1 22 1 32 4 23 2 -11 10 -15 20 -11 13 5 15 1 11 -21 -3
-14 -2 -29 2 -31 9 -6 1 -56 -13 -73 -5 -7 -7 -15 -3 -19 3 -3 0 -13 -8 -22
-7 -9 -17 -26 -20 -38 -8 -27 6 -30 46 -11 21 10 28 24 38 71 9 44 16 61 31
64 15 4 19 14 19 50 0 28 4 42 10 38 6 -4 8 -21 4 -41 -4 -22 -2 -34 5 -34 6
0 11 9 11 20 0 11 5 20 11 20 6 0 10 -16 9 -37 -3 -54 -2 -57 14 -44 17 15 28
1 15 -19 -13 -21 -11 -30 6 -30 10 0 15 11 15 35 0 30 3 35 23 35 12 0 37 9
55 20 24 15 32 16 32 6 0 -19 27 -40 34 -27 4 6 13 8 21 4 10 -3 15 1 15 13 0
16 2 17 10 4 8 -12 12 -12 18 -2 5 7 16 10 25 6 9 -3 17 -2 17 4 0 6 -5 12
-12 14 -6 2 -8 10 -4 17 6 9 11 9 22 0 8 -7 14 -7 14 -1 0 11 36 23 44 15 3
-3 -4 -14 -14 -26 -19 -19 -19 -21 -2 -38 16 -17 18 -16 47 15 17 18 35 31 41
29 6 -2 21 20 35 49 13 29 30 59 36 66 7 7 13 27 13 43 0 16 6 30 13 31 6 0
18 2 26 2 8 1 16 7 19 14 2 8 -2 10 -12 6 -15 -6 -15 -3 -5 19 7 15 16 24 20
21 5 -3 9 3 9 13 0 10 13 34 30 53 20 25 29 46 30 72 0 53 38 86 67 57 7 -7
25 3 62 37 52 48 82 71 91 72 12 0 70 38 70 45 0 4 26 19 57 33 32 13 65 32
74 40 10 9 26 14 36 12 10 -3 39 4 64 13 26 10 49 15 53 12 3 -3 12 0 20 6 8
7 20 10 26 6 6 -4 39 -8 73 -9 72 -3 186 -21 239 -37 32 -10 39 -9 59 10 12
11 28 21 35 21 6 0 17 7 24 15 7 8 19 15 26 15 27 0 14 -16 -28 -35 -45 -21
-57 -48 -23 -53 38 -6 125 -35 125 -41 0 -9 73 -36 80 -30 3 2 4 10 2 17 -3
14 14 16 23 2 4 -6 12 -7 18 -3 9 5 9 3 1 -8 -5 -8 -10 -20 -10 -26 1 -17 20
-18 27 -1 3 7 11 23 17 35 16 30 15 34 -3 27 -11 -5 -14 0 -12 17 3 16 13 26
35 31 18 5 32 12 32 16 0 4 -13 20 -30 35 -27 26 -30 35 -30 87 0 38 -4 60
-12 63 -9 3 -7 9 6 19 22 17 14 38 -15 38 -26 0 -25 37 1 45 24 8 25 18 5 35
-18 15 -17 96 2 125 7 11 13 22 13 26 0 15 -278 74 -397 84 -73 7 -83 6 -83
-9 0 -23 -17 -20 -23 4 -5 20 -12 21 -130 19 -68 0 -130 -5 -138 -10z m-389
-89 c0 -5 -4 -10 -10 -10 -5 0 -10 5 -10 10 0 6 5 10 10 10 6 0 10 -4 10 -10z
m228 -18 c2 -15 -2 -22 -12 -22 -11 0 -16 9 -16 26 0 31 23 28 28 -4z m892 22
c0 -13 -21 -42 -34 -47 -10 -4 -12 0 -8 16 5 21 19 37 35 37 4 0 7 -3 7 -6z
m-120 -64 c0 -12 -8 -12 -35 0 -18 8 -17 9 8 9 15 1 27 -3 27 -9z m120 -26 c0
-15 -6 -24 -15 -24 -17 0 -18 4 -9 37 8 29 24 20 24 -13z m-237 -8 c6 -16 -2
-28 -14 -20 -12 7 -11 34 0 34 5 0 11 -6 14 -14z m161 -32 c4 -11 1 -14 -11
-12 -9 2 -18 9 -21 16 -6 18 25 15 32 -4z m56 -4 c0 -5 -4 -10 -10 -10 -5 0
-10 5 -10 10 0 6 5 10 10 10 6 0 10 -4 10 -10z m-1200 -36 c0 -9 -8 -14 -17
-13 -10 1 -31 -3 -46 -9 -35 -15 -40 -15 -32 -2 9 14 79 49 88 43 4 -2 7 -11
7 -19z m-280 -42 c0 -35 -15 -18 -18 20 -2 25 0 29 8 18 5 -8 10 -25 10 -38z
m694 33 c-4 -8 -8 -15 -10 -15 -2 0 -4 7 -4 15 0 8 4 15 10 15 5 0 7 -7 4 -15z
m806 5 c0 -5 -9 -10 -20 -10 -11 0 -20 5 -20 10 0 6 9 10 20 10 11 0 20 -4 20
-10z m-377 -50 c-3 -11 -9 -23 -14 -26 -10 -6 -12 29 -2 39 13 13 21 7 16 -13z
m-412 -9 c-9 -6 -14 -33 -16 -87 -1 -44 -3 -94 -4 -111 0 -18 -6 -33 -12 -33
-8 0 -9 31 -4 108 7 104 15 132 39 132 6 0 5 -4 -3 -9z m779 -61 c0 -5 -4 -10
-9 -10 -6 0 -13 5 -16 10 -3 6 1 10 9 10 9 0 16 -4 16 -10z m-184 -27 c-10
-10 -19 5 -10 18 6 11 8 11 12 0 2 -7 1 -15 -2 -18z m141 -5 c-3 -8 -6 -5 -6
6 -1 11 2 17 5 13 3 -3 4 -12 1 -19z m-1757 -8 c0 -5 -5 -10 -11 -10 -5 0 -7
5 -4 10 3 6 8 10 11 10 2 0 4 -4 4 -10z m1700 -17 c0 -19 -3 -24 -10 -17 -6 6
-8 18 -4 27 9 24 14 21 14 -10z m-143 -9 c-3 -3 -12 -4 -19 -1 -8 3 -5 6 6 6
11 1 17 -2 13 -5z m-222 -34 c3 -5 -1 -10 -9 -10 -9 0 -16 5 -16 10 0 6 4 10
9 10 6 0 13 -4 16 -10z m362 -16 c-9 -9 -28 6 -21 18 4 6 10 6 17 -1 6 -6 8
-13 4 -17z m-317 2 c0 -2 3 -11 6 -20 4 -11 1 -16 -10 -16 -9 0 -16 2 -16 4 0
2 -3 11 -6 20 -4 11 -1 16 10 16 9 0 16 -2 16 -4z m-1380 -28 c0 -4 -13 -8
-30 -8 -16 0 -30 5 -30 10 0 6 14 9 30 8 17 -1 30 -6 30 -10z m1337 -4 c-3 -3
-12 -4 -19 -1 -8 3 -5 6 6 6 11 1 17 -2 13 -5z m103 -4 c0 -5 -4 -10 -10 -10
-5 0 -10 5 -10 10 0 6 5 10 10 10 6 0 10 -4 10 -10z m250 -5 c0 -8 -6 -14 -12
-12 -14 2 -14 -3 -4 -45 l6 -26 -24 21 c-20 18 -22 25 -14 42 18 34 48 47 48
20z m-1870 1 c0 -3 -4 -8 -10 -11 -5 -3 -10 -1 -10 4 0 6 5 11 10 11 6 0 10
-2 10 -4z m2050 -17 c0 -14 -37 -10 -43 4 -4 10 2 13 19 9 13 -2 24 -8 24 -13z
m-1910 -55 c0 -11 -5 -14 -16 -10 -9 3 -18 6 -20 6 -3 0 -2 5 1 10 10 16 35
12 35 -6z m1800 -19 c0 -8 -2 -15 -4 -15 -2 0 -6 7 -10 15 -3 8 -1 15 4 15 6
0 10 -7 10 -15z m-2016 -21 c4 -15 4 -29 1 -32 -10 -11 -38 26 -32 42 9 24 24
19 31 -10z m36 -59 c0 -7 -6 -15 -12 -18 -10 -3 -10 -9 -1 -24 33 -57 21 -151
-13 -106 -13 17 -14 16 -20 -5 -4 -13 -12 -21 -19 -18 -7 2 -24 -7 -39 -20
l-26 -25 0 31 c0 17 4 29 10 25 14 -9 62 6 57 19 -10 26 12 140 29 153 19 14
34 9 34 -12z m175 -15 c-3 -5 -10 -10 -16 -10 -5 0 -9 5 -9 10 0 6 7 10 16 10
8 0 12 -4 9 -10z m-2 -144 c23 -18 21 -28 -5 -24 -13 2 -24 11 -26 21 -4 20 6
21 31 3z m572 5 c7 -12 -12 -24 -25 -16 -11 7 -4 25 10 25 5 0 11 -4 15 -9z
m-660 -21 c3 -6 -5 -10 -19 -10 -17 0 -24 -4 -20 -14 3 -8 -9 -22 -31 -34 -19
-12 -41 -26 -48 -32 -30 -24 -108 -80 -112 -80 -22 0 14 45 63 79 17 12 32 29
32 37 0 8 9 14 20 14 11 0 20 5 20 10 0 6 9 10 20 10 13 0 18 5 14 15 -5 11 1
15 24 15 17 0 34 -4 37 -10z m-400 -50 c3 -5 27 -10 53 -11 l47 -1 -35 -9
c-19 -4 -49 -10 -66 -13 -17 -3 -39 -8 -50 -12 -18 -5 -18 -5 0 10 11 9 23 16
28 16 4 0 5 7 2 15 -7 17 11 21 21 5z m160 -20 c3 -5 2 -10 -4 -10 -5 0 -13 5
-16 10 -3 6 -2 10 4 10 5 0 13 -4 16 -10z m285 -17 c0 -7 -40 -26 -102 -49
-10 -3 -18 -2 -18 4 0 5 21 19 48 30 50 23 72 27 72 15z m5 -43 c3 -5 1 -10
-4 -10 -6 0 -11 5 -11 10 0 6 2 10 4 10 3 0 8 -4 11 -10z m400 -9 c3 -5 1 -12
-5 -16 -5 -3 -10 1 -10 9 0 18 6 21 15 7z m-855 -33 c0 -5 -19 -8 -42 -8 -27
0 -38 3 -30 9 16 10 72 9 72 -1z m799 -8 c-21 -11 -57 -22 -80 -25 -47 -5 -41
-1 31 26 64 23 94 23 49 -1z m-665 -34 c-3 -15 -31 -48 -61 -75 -31 -27 -52
-54 -48 -60 3 -7 -2 -11 -14 -11 -11 0 -46 -25 -77 -55 -32 -30 -61 -55 -66
-55 -21 0 -5 41 26 65 22 18 33 33 29 44 -4 12 -3 13 5 2 10 -13 23 -6 71 40
9 8 42 37 74 63 31 27 57 55 57 64 0 8 2 13 5 10 4 -3 3 -18 -1 -32z m576 -45
c0 -5 -7 -11 -15 -15 -15 -5 -20 5 -8 17 9 10 23 9 23 -2z m-53 -48 c-3 -3
-11 -2 -17 2 -8 5 -7 11 2 22 12 15 13 14 16 -1 2 -10 1 -20 -1 -23z m-297
-13 c0 -5 -4 -10 -10 -10 -5 0 -10 5 -10 10 0 6 5 10 10 10 6 0 10 -4 10 -10z
m469 -60 c-12 -32 -29 -40 -29 -14 0 13 24 42 37 44 1 0 -3 -13 -8 -30z m-729
10 c0 -5 -2 -10 -4 -10 -3 0 -8 5 -11 10 -3 6 -1 10 4 10 6 0 11 -4 11 -10z
m-338 -40 c-6 -41 -12 -38 -12 6 0 19 4 33 8 30 5 -3 7 -19 4 -36z"/>
<path d="M2960 4350 c0 -5 5 -10 11 -10 5 0 7 5 4 10 -3 6 -8 10 -11 10 -2 0
-4 -4 -4 -10z"/>
<path d="M3043 4283 c-7 -3 -13 -12 -13 -21 0 -15 2 -15 17 1 18 18 16 27 -4
20z"/>
<path d="M3010 4231 c0 -6 5 -13 10 -16 6 -3 10 1 10 9 0 9 -4 16 -10 16 -5 0
-10 -4 -10 -9z"/>
<path d="M3040 4220 c0 -11 4 -20 8 -20 4 0 8 9 9 20 1 11 -2 20 -8 20 -5 0
-9 -9 -9 -20z"/>
<path d="M3001 4194 c0 -11 3 -14 6 -6 3 7 2 16 -1 19 -3 4 -6 -2 -5 -13z"/>
<path d="M2940 4130 c18 -12 30 -13 30 -2 0 4 -10 9 -22 9 -18 2 -20 0 -8 -7z"/>
<path d="M2945 4080 c-3 -5 -2 -10 4 -10 5 0 13 5 16 10 3 6 2 10 -4 10 -5 0
-13 -4 -16 -10z"/>
<path d="M2997 4064 c-3 -3 -3 -12 0 -20 3 -8 -3 -26 -12 -41 -11 -16 -17 -43
-17 -65 1 -21 -1 -37 -6 -37 -20 3 -22 -4 -6 -30 21 -36 13 -65 -17 -56 -15 5
-19 4 -14 -5 4 -6 16 -10 26 -7 21 6 22 2 9 -28 -5 -11 -9 -14 -9 -7 -1 7 -6
10 -12 7 -7 -5 -3 -14 10 -26 11 -10 22 -19 25 -19 2 0 8 28 12 63 5 39 10 52
12 35 2 -16 8 -28 13 -28 5 0 10 12 10 28 1 15 3 20 6 10 7 -29 33 -9 33 26
-1 29 -1 30 -15 12 -15 -20 -15 -20 -16 0 -1 10 -1 27 0 37 3 28 -17 19 -22
-10 -2 -16 -2 4 0 42 3 39 12 81 20 95 9 14 12 22 8 18 -5 -4 -13 -3 -20 2 -7
5 -14 7 -18 4z"/>
<path d="M3050 4024 c0 -21 -4 -33 -10 -29 -15 9 -12 -15 4 -31 20 -20 23 -18
23 14 0 15 3 40 7 55 5 20 3 27 -9 27 -11 0 -15 -10 -15 -36z"/>
<path d="M2928 4043 c7 -3 16 -2 19 1 4 3 -2 6 -13 5 -11 0 -14 -3 -6 -6z"/>
<path d="M3040 3915 c0 -8 5 -15 10 -15 6 0 10 7 10 15 0 8 -4 15 -10 15 -5 0
-10 -7 -10 -15z"/>
<path d="M2015 3850 c-3 -5 1 -10 10 -10 9 0 13 5 10 10 -3 6 -8 10 -10 10 -2
0 -7 -4 -10 -10z"/>
<path d="M2930 3850 c0 -5 5 -10 11 -10 5 0 7 5 4 10 -3 6 -8 10 -11 10 -2 0
-4 -4 -4 -10z"/>
<path d="M3037 3778 c8 -44 13 -48 13 -10 0 17 -4 34 -10 37 -6 4 -7 -6 -3
-27z"/>
<path d="M2010 3770 c0 -5 5 -10 10 -10 6 0 10 5 10 10 0 6 -4 10 -10 10 -5 0
-10 -4 -10 -10z"/>
<path d="M2760 3757 c0 -34 -38 -44 -46 -12 -4 17 -12 22 -30 21 -19 -1 -24
-5 -20 -19 2 -10 -2 -21 -11 -24 -11 -5 -12 -7 -2 -14 18 -10 29 -2 29 22 0
25 16 24 31 -2 8 -17 17 -20 39 -15 23 4 28 2 23 -9 -3 -8 -1 -15 5 -15 5 0
13 7 16 16 9 22 8 24 -10 24 -11 0 -13 6 -9 19 3 11 1 22 -5 26 -6 4 -10 -4
-10 -18z"/>
<path d="M2730 3749 c0 -5 5 -7 10 -4 6 3 10 8 10 11 0 2 -4 4 -10 4 -5 0 -10
-5 -10 -11z"/>
<path d="M2007 3722 c4 -9 2 -13 -4 -9 -6 4 -8 -2 -6 -16 5 -24 50 -63 61 -52
3 3 0 11 -8 16 -12 8 -10 10 8 6 13 -3 20 -1 16 5 -3 5 -16 7 -28 4 -17 -4
-23 -1 -23 12 0 9 4 22 9 28 5 8 2 13 -11 17 -15 3 -18 1 -14 -11z"/>
<path d="M2245 3720 c3 -5 11 -10 16 -10 6 0 7 5 4 10 -3 6 -11 10 -16 10 -6
0 -7 -4 -4 -10z"/>
<path d="M2827 3716 c-4 -9 -2 -18 3 -21 15 -9 12 -25 -4 -25 -15 0 -28 -24
-19 -34 9 -8 23 -7 22 2 -3 19 2 23 16 12 13 -11 15 -8 15 16 -1 37 -25 72
-33 50z"/>
<path d="M2055 3710 c-3 -5 -2 -10 4 -10 5 0 13 5 16 10 3 6 2 10 -4 10 -5 0
-13 -4 -16 -10z"/>
<path d="M1950 3695 c-14 -16 -10 -18 14 -9 9 3 16 10 16 15 0 14 -16 11 -30
-6z"/>
<path d="M2314 3695 c3 -8 0 -15 -6 -15 -6 0 -8 -3 -5 -6 9 -9 38 16 31 27 -9
15 -26 10 -20 -6z"/>
<path d="M2598 3703 c6 -2 18 -2 25 0 6 3 1 5 -13 5 -14 0 -19 -2 -12 -5z"/>
<path d="M2363 3693 c-15 -5 -17 -23 -4 -23 5 0 11 7 15 15 3 8 4 15 3 14 -1
0 -8 -3 -14 -6z"/>
<path d="M2411 3683 c-8 -13 -10 -14 -11 -4 0 8 -3 12 -6 8 -3 -3 -3 -10 1
-16 7 -13 45 4 45 19 0 16 -18 11 -29 -7z"/>
<path d="M2580 3680 c0 -5 4 -10 9 -10 6 0 13 5 16 10 3 6 -1 10 -9 10 -9 0
-16 -4 -16 -10z"/>
<path d="M2125 3660 c-3 -5 1 -10 10 -10 9 0 13 5 10 10 -3 6 -8 10 -10 10 -2
0 -7 -4 -10 -10z"/>
<path d="M1810 3650 c0 -5 7 -10 16 -10 8 0 12 5 9 10 -3 6 -10 10 -16 10 -5
0 -9 -4 -9 -10z"/>
<path d="M2545 3650 c3 -5 8 -10 11 -10 2 0 4 5 4 10 0 6 -5 10 -11 10 -5 0
-7 -4 -4 -10z"/>
<path d="M2588 3652 c-13 -3 -12 -7 8 -28 30 -29 34 -30 34 -3 0 13 4 18 12
13 7 -4 8 -3 4 5 -4 6 -12 8 -18 5 -6 -4 -13 -2 -17 3 -3 5 -13 7 -23 5z"/>
<path d="M2673 3645 c-18 -19 -16 -45 2 -45 15 0 20 -12 9 -23 -4 -3 -13 1
-21 9 -8 8 -19 12 -24 8 -13 -7 -1 -24 17 -24 8 0 14 -5 14 -11 0 -6 -9 -9
-20 -6 -11 3 -20 1 -20 -3 0 -10 -61 -7 -79 4 -6 4 -11 1 -11 -8 0 -9 -9 -16
-20 -16 -24 0 -25 4 -4 24 14 15 13 16 -8 17 -13 1 -27 0 -33 -1 -5 -1 -23 -2
-38 -2 -25 1 -28 -2 -23 -21 4 -18 1 -23 -14 -23 -11 0 -20 7 -20 16 0 9 -3
11 -8 5 -10 -14 -53 -37 -58 -32 -3 3 2 12 11 21 15 14 15 18 -2 41 -14 18
-27 24 -53 24 -19 -1 -27 -3 -17 -6 9 -2 17 -10 17 -16 0 -8 3 -8 9 1 6 10 10
10 20 -1 18 -22 -14 -45 -40 -29 -23 14 -25 7 -4 -14 18 -18 20 -34 4 -34 -8
0 -8 -4 0 -14 9 -10 6 -17 -13 -30 -23 -15 -26 -15 -34 0 -6 12 -18 15 -36 12
-15 -3 -29 -1 -32 4 -3 4 0 7 7 6 7 -2 15 6 17 17 2 11 9 23 15 27 6 4 8 10 4
14 -4 4 -15 -2 -24 -13 -12 -14 -24 -18 -37 -13 -14 4 -16 9 -8 14 7 4 12 4
12 -1 0 -4 5 0 11 10 5 9 7 22 3 29 -5 8 -10 6 -15 -8 -7 -17 -8 -17 -8 -1 -1
14 -5 16 -18 8 -10 -5 -22 -10 -28 -11 -13 -3 -7 -22 11 -36 12 -9 10 -11 -11
-11 -14 0 -28 3 -31 8 -3 5 3 6 13 3 17 -5 17 -5 0 6 -10 6 -25 9 -34 6 -13
-5 -12 -10 8 -27 l24 -21 -30 7 c-17 4 -35 8 -42 10 -7 2 -20 -3 -29 -12 -16
-16 -16 -16 -10 5 10 29 -14 30 -40 1 -14 -15 -15 -22 -6 -28 7 -4 10 -15 7
-23 -4 -9 1 -18 11 -22 12 -4 15 -2 10 9 -3 8 -1 15 5 15 22 0 3 -34 -28 -51
-28 -16 -33 -16 -33 -4 0 8 8 15 18 15 13 0 14 2 3 9 -8 5 -11 17 -7 28 5 15
-2 23 -29 36 -36 17 -43 11 -25 -23 7 -13 6 -19 -5 -24 -10 -4 -15 1 -15 15 0
11 -4 17 -10 14 -5 -3 -10 -14 -10 -25 0 -22 49 -37 61 -18 4 7 10 10 13 7 3
-2 1 -11 -4 -19 -8 -13 -15 -13 -54 1 -25 9 -43 12 -40 8 10 -17 -7 -31 -22
-18 -10 8 -14 8 -14 0 0 -16 -27 -13 -34 4 -9 24 -25 18 -68 -25 -23 -22 -45
-40 -51 -40 -8 0 -7 -14 9 -75 3 -12 2 -15 -3 -9 -13 18 -60 23 -59 6 1 -9
-11 -16 -32 -18 -20 -2 -31 0 -27 6 3 6 -1 10 -9 10 -9 0 -16 3 -16 8 0 12 51
31 68 25 12 -4 10 2 -8 23 -14 16 -26 31 -27 33 -2 2 -6 1 -9 -2 -4 -4 -1 -13
6 -22 15 -18 13 -22 -15 -27 -40 -6 -57 -58 -19 -58 8 0 14 -8 14 -17 0 -15
-2 -16 -10 -3 -5 8 -10 10 -10 5 0 -18 31 -56 41 -50 13 9 11 -9 -3 -23 -9 -9
-7 -12 9 -12 12 0 24 6 26 13 3 6 6 -1 6 -17 1 -16 9 -35 19 -43 9 -8 11 -12
4 -8 -7 4 -18 2 -25 -4 -15 -12 -42 2 -33 18 4 6 2 11 -3 11 -6 0 -11 -5 -11
-11 0 -23 -18 3 -24 36 -8 41 -18 44 -34 10 -8 -17 -16 -23 -28 -18 -13 5 -16
2 -11 -10 3 -8 2 -17 -3 -19 -33 -11 -35 -233 -3 -334 15 -50 15 -52 -6 -75
-11 -12 -21 -26 -21 -31 0 -4 -6 -7 -12 -6 -7 2 -14 -7 -16 -19 -2 -13 -10
-23 -19 -23 -9 0 -13 -6 -10 -14 4 -9 -2 -17 -14 -21 -17 -6 -24 -17 -16 -29
1 -3 -8 -15 -20 -28 -13 -13 -34 -60 -48 -103 -14 -44 -28 -87 -31 -95 -7 -14
-10 -23 -17 -52 -14 -53 -61 -195 -67 -203 -4 -5 -7 -23 -6 -38 1 -16 -2 -31
-6 -33 -4 -3 -8 0 -8 5 0 16 -49 13 -65 -3 -7 -7 -15 -21 -17 -32 -2 -10 -16
-31 -33 -47 -27 -25 -28 -28 -7 -22 19 5 22 2 22 -19 0 -14 -4 -26 -10 -26 -5
0 -7 7 -4 15 8 19 -10 19 -29 0 -8 -8 -17 -11 -21 -8 -3 4 -6 -3 -6 -15 0 -12
-5 -22 -11 -22 -5 0 -7 -5 -4 -10 3 -6 -1 -13 -9 -16 -18 -7 -22 -34 -6 -34 6
0 10 4 10 9 0 13 25 20 40 11 10 -6 6 -15 -14 -36 -15 -16 -34 -45 -42 -64 -8
-19 -20 -38 -27 -42 -17 -11 -37 -10 -37 2 0 6 7 10 15 10 10 0 15 9 14 28
l-1 27 -8 -25 c-8 -24 -8 -24 -9 -2 -1 12 -4 22 -8 22 -14 0 -38 -19 -39 -30
-1 -5 -3 -12 -4 -15 -1 -3 -3 -8 -4 -12 -16 -62 -32 -93 -65 -127 -22 -23 -56
-72 -75 -111 -19 -38 -47 -90 -62 -115 -27 -44 -27 -45 -3 -24 13 12 30 19 38
17 17 -7 33 18 21 32 -9 11 8 73 34 124 24 46 97 101 134 101 10 0 23 5 29 11
17 17 77 7 81 -13 2 -11 -3 -18 -11 -18 -8 0 -18 -7 -21 -15 -3 -9 -22 -23
-41 -31 -19 -8 -35 -18 -35 -23 0 -12 -39 -21 -46 -10 -10 17 -22 0 -17 -24 5
-17 3 -20 -7 -10 -23 22 -80 -57 -80 -112 0 -14 -5 -25 -10 -25 -6 0 -39 -28
-73 -63 -35 -34 -83 -78 -107 -98 -54 -45 -55 -42 56 -190 302 -401 721 -686
1213 -824 309 -86 700 -99 1038 -34 122 23 331 90 438 139 11 5 55 25 98 44
166 75 392 226 532 357 96 90 251 263 294 329 20 30 41 60 47 65 21 18 61 89
61 108 0 9 -7 17 -15 17 -21 0 -72 39 -72 55 0 8 -9 17 -20 20 -11 3 -20 11
-20 16 0 5 -4 9 -10 9 -5 0 -10 -7 -10 -17 0 -9 -2 -14 -4 -12 -2 2 0 47 4 99
27 312 4 528 -71 650 -5 8 -15 29 -22 45 -8 17 -24 38 -35 49 -12 10 -19 22
-17 26 3 5 -5 6 -17 3 -13 -3 -20 -2 -15 2 4 5 0 17 -10 27 -9 11 -11 18 -5
18 7 0 12 5 12 10 0 6 -7 10 -16 10 -8 0 -12 4 -9 10 3 5 -6 22 -22 37 -15 16
-26 32 -25 37 2 5 -4 6 -13 3 -8 -4 -15 -2 -15 4 0 18 -86 94 -103 91 -10 -2
-17 1 -17 7 0 6 5 11 11 11 5 0 7 5 3 11 -4 8 -9 7 -15 -2 -10 -17 -44 0 -44
22 0 8 -7 14 -15 14 -8 1 -14 7 -12 14 3 14 -28 42 -40 35 -3 -2 -9 5 -13 16
-3 11 -23 32 -43 47 -20 16 -40 33 -45 40 -4 7 -14 10 -21 7 -8 -3 -19 4 -26
16 -6 12 -14 20 -16 17 -3 -2 -18 9 -34 25 -17 17 -35 26 -41 22 -8 -5 -9 -3
-4 5 4 7 -2 22 -15 36 -21 22 -21 24 -6 83 18 67 22 150 14 257 -3 39 -6 78
-7 88 -1 9 -9 17 -18 17 -15 0 -15 2 -4 9 12 8 13 19 2 68 -6 32 -11 72 -11
89 1 47 -16 85 -35 78 -23 -9 -77 16 -71 32 3 8 0 14 -7 14 -7 0 -4 5 6 11 9
6 15 14 12 20 -4 5 3 9 14 9 15 0 21 6 21 23 0 28 -43 82 -58 73 -13 -8 -42
20 -42 42 0 14 -2 14 -9 3 -5 -7 -14 -11 -20 -7 -7 5 -8 1 -4 -10 4 -12 3 -15
-6 -10 -8 6 -10 1 -6 -17 5 -17 2 -26 -10 -31 -9 -3 -13 -2 -10 4 3 6 -3 10
-14 10 -11 0 -26 7 -35 15 -25 25 -31 -3 -6 -30 16 -17 18 -24 8 -27 -7 -3
-18 3 -23 13 -10 17 -13 17 -56 -14 -25 -18 -44 -37 -42 -44 2 -6 -1 -14 -6
-18 -19 -11 -12 -25 12 -25 20 0 20 -1 -7 -15 -15 -8 -32 -12 -37 -9 -5 3 -9
-2 -9 -10 0 -8 -9 -18 -21 -21 -12 -4 -18 -12 -15 -21 3 -8 1 -14 -4 -14 -6 0
-10 6 -11 13 0 6 -4 3 -9 -8 -8 -19 -9 -19 -9 2 -1 12 -9 24 -21 28 -11 3 -20
10 -20 15 0 5 7 7 15 4 12 -5 14 0 9 27 -4 26 -3 30 5 19 6 -8 11 -23 11 -33
0 -24 28 -33 47 -15 12 12 13 20 4 36 -14 26 -14 45 -1 37 5 -3 18 -1 27 4 10
6 14 11 9 11 -5 0 -1 9 9 20 18 20 18 20 -3 17 -12 -2 -25 -6 -28 -10 -4 -4
-22 -7 -41 -7 -21 0 -36 -6 -39 -15 -4 -8 -10 -15 -15 -15 -5 0 -3 14 6 30 9
17 22 30 30 30 8 0 15 7 15 15 0 8 -5 15 -11 15 -5 0 -7 -5 -3 -12 5 -8 2 -9
-9 -5 -9 3 -20 0 -24 -8 -5 -8 -20 -16 -33 -17 -14 -2 -29 -7 -33 -13 -4 -5
-5 2 -1 16 7 31 -10 46 -31 29 -11 -9 -12 -7 -8 8 3 11 20 25 43 32 35 11 53
11 100 -1 9 -2 16 4 18 17 3 18 -1 21 -24 16 -19 -3 -25 -1 -20 7 4 6 2 11 -4
11 -7 0 -6 5 2 14 10 10 15 11 21 2 6 -7 7 -4 3 7 -3 10 -6 25 -6 34 0 9 -6
13 -14 10 -7 -3 -17 -2 -22 3 -5 5 -15 2 -21 -5z m27 -85 c0 -5 -4 -10 -10
-10 -5 0 -10 5 -10 10 0 6 5 10 10 10 6 0 10 -4 10 -10z m380 -29 c0 -5 -6
-14 -14 -20 -12 -10 -13 -8 -9 8 5 21 23 30 23 12z m-650 -25 c0 -2 -9 -6 -20
-9 -11 -3 -18 -1 -14 4 5 9 34 13 34 5z m-55 -16 c3 -5 2 -10 -4 -10 -5 0 -13
5 -16 10 -3 6 -2 10 4 10 5 0 13 -4 16 -10z m163 -15 c-3 -3 -9 2 -12 12 -6
14 -5 15 5 6 7 -7 10 -15 7 -18z m-418 0 c0 -8 -7 -15 -16 -15 -8 0 -13 -4
-10 -8 3 -5 -1 -9 -9 -9 -19 0 -19 6 2 29 20 22 33 23 33 3z m960 -7 c0 -7
-24 -12 -43 -9 -5 1 -6 -3 -2 -9 3 -5 3 -15 -1 -22 -5 -8 -10 -6 -14 8 -4 10
-4 24 0 29 10 12 60 14 60 3z m-1065 -18 c-3 -5 1 -10 9 -10 9 0 16 -6 16 -14
0 -11 8 -12 38 -5 46 11 57 11 48 2 -4 -5 -13 -8 -19 -8 -7 0 -13 -9 -16 -20
-3 -17 -1 -18 13 -6 14 12 19 12 29 1 10 -10 9 -12 -5 -7 -30 11 -20 -17 12
-36 17 -10 30 -23 30 -29 0 -6 -3 -8 -7 -5 -3 4 -11 -1 -18 -9 -10 -15 -14
-14 -37 9 -21 21 -23 27 -11 31 13 5 13 9 3 22 -7 8 -19 13 -26 10 -7 -3 -15
3 -17 12 -3 12 -5 11 -6 -5 -1 -26 -21 -32 -21 -7 0 8 -4 12 -10 9 -5 -3 -10
-1 -10 5 0 6 -8 19 -17 28 -16 16 -16 16 -10 0 7 -20 6 -21 -17 -12 -9 3 -16
10 -16 16 0 5 4 6 10 3 6 -4 7 1 3 11 -5 13 -2 15 15 9 13 -4 22 -2 22 4 0 6
5 11 11 11 5 0 7 -4 4 -10z m475 -1 c13 -9 12 -10 -2 -5 -28 9 -21 -13 7 -24
24 -9 35 -30 15 -30 -5 0 -10 4 -10 8 0 5 -6 9 -12 9 -7 0 -22 4 -33 9 -17 7
-18 6 -7 -8 10 -12 10 -18 1 -23 -6 -4 -14 -3 -18 3 -12 19 -51 2 -50 -22 0
-19 1 -20 8 -2 7 18 9 17 34 -8 15 -15 27 -31 27 -36 0 -15 -18 -12 -27 4 -8
15 -11 16 -41 16 -15 0 -18 6 -14 31 3 20 -1 35 -9 41 -10 7 -8 8 8 3 14 -4
34 3 58 20 43 28 44 29 65 14z m415 -9 c-3 -5 -11 -10 -16 -10 -6 0 -7 5 -4
10 3 6 11 10 16 10 6 0 7 -4 4 -10z m-658 -14 c0 -8 -9 -13 -23 -11 -31 3 -48
-10 -40 -30 3 -10 9 -15 12 -12 3 3 16 2 29 -3 18 -7 25 -5 30 8 5 14 7 14 16
2 5 -10 12 -11 17 -5 10 13 39 12 53 -2 8 -8 6 -13 -10 -18 -12 -3 -19 -11
-16 -16 4 -5 -5 -5 -20 1 -34 13 -48 5 -35 -20 15 -27 12 -36 -10 -37 -11 -1
-20 2 -20 6 0 5 -10 11 -22 14 -21 5 -21 5 -6 -7 21 -16 13 -26 -19 -26 -13 0
-22 -4 -19 -9 3 -5 -1 -11 -9 -15 -24 -9 -18 22 10 49 13 14 36 25 50 25 19 0
25 5 25 21 0 15 -4 19 -16 15 -27 -11 -54 12 -54 46 0 17 3 29 6 26 3 -3 17
-2 32 2 38 12 39 12 39 -4z m-87 0 c0 -3 -4 -8 -10 -11 -5 -3 -10 -1 -10 4 0
6 5 11 10 11 6 0 10 -2 10 -4z m430 -6 c0 -5 -2 -10 -4 -10 -3 0 -8 5 -11 10
-3 6 -1 10 4 10 6 0 11 -4 11 -10z m-22 -18 c2 -7 -1 -12 -8 -12 -6 0 -9 4 -6
9 4 5 1 12 -4 14 -6 3 -5 4 2 3 6 -1 14 -8 16 -14z m62 3 c7 -8 8 -15 2 -15
-5 0 -15 7 -22 15 -7 8 -8 15 -2 15 5 0 15 -7 22 -15z m40 5 c0 -5 -2 -10 -4
-10 -3 0 -8 5 -11 10 -3 6 -1 10 4 10 6 0 11 -4 11 -10z m431 -13 c-10 -9 -11
-8 -5 6 3 10 9 15 12 12 3 -3 0 -11 -7 -18z m-414 -42 c-26 -19 -14 -54 23
-67 8 -3 -2 -6 -22 -6 -27 0 -35 4 -31 14 2 7 1 18 -3 25 -5 9 -11 7 -21 -6
-7 -11 -13 -14 -13 -8 0 7 5 15 11 19 6 3 9 14 6 24 -3 12 0 17 8 14 7 -3 19
1 26 9 9 10 17 12 24 5 7 -6 4 -14 -8 -23z m319 24 c5 -8 -1 -10 -20 -7 -14 3
-26 1 -26 -5 0 -6 -3 -8 -6 -4 -10 10 6 27 26 27 10 0 22 -5 26 -11z m-1340
-35 c-11 -8 -25 -14 -30 -13 -6 0 -5 3 3 6 11 5 11 7 0 14 -11 7 -10 9 4 9 9
0 17 5 17 12 0 9 3 9 13 -1 10 -10 8 -15 -7 -27z m354 10 c0 -2 -7 -4 -15 -4
-8 0 -15 4 -15 10 0 5 7 7 15 4 8 -4 15 -8 15 -10z m510 -5 c0 -9 -4 -10 -42
-12 -27 -2 -36 20 -11 25 24 5 53 -2 53 -13z m28 14 c-4 -12 5 -15 25 -7 10 3
21 4 24 0 4 -3 -1 -6 -9 -6 -9 0 -19 -8 -23 -17 -6 -17 -7 -17 -21 1 -16 23
-18 36 -4 36 6 0 9 -3 8 -7z m-828 -13 c0 -5 -4 -10 -10 -10 -5 0 -10 5 -10
10 0 6 5 10 10 10 6 0 10 -4 10 -10z m198 -15 c-2 -17 -7 -24 -16 -20 -10 4
-12 0 -8 -12 6 -16 6 -16 -12 0 -17 15 -19 15 -35 0 -15 -15 -17 -15 -23 2
-10 25 21 46 57 38 18 -3 29 -1 29 6 0 6 2 11 5 11 3 0 4 -11 3 -25z m842 15
c0 -5 -2 -10 -4 -10 -3 0 -8 5 -11 10 -3 6 -1 10 4 10 6 0 11 -4 11 -10z m130
-22 c0 -3 -9 -4 -19 -1 -16 4 -17 8 -8 18 11 12 26 3 27 -17z m190 22 c0 -5
-14 -17 -30 -25 -17 -9 -28 -21 -24 -26 4 -7 -1 -9 -15 -4 -13 4 -21 2 -21 -5
0 -6 -4 -8 -10 -5 -19 12 -10 25 16 25 24 0 25 2 13 17 -13 15 -11 16 13 10
18 -5 31 -2 40 8 16 17 18 18 18 5z m-1110 -10 c0 -5 -7 -10 -16 -10 -8 0 -12
5 -9 10 3 6 10 10 16 10 5 0 9 -4 9 -10z m54 -15 c3 -9 0 -15 -9 -15 -9 0 -12
6 -9 15 4 8 7 15 9 15 2 0 5 -7 9 -15z m261 -13 c-3 -3 -11 0 -18 7 -9 10 -8
11 6 5 10 -3 15 -9 12 -12z m72 12 c-3 -3 -12 -4 -19 -1 -8 3 -5 6 6 6 11 1
17 -2 13 -5z m173 2 c0 -3 -4 -8 -10 -11 -5 -3 -10 -1 -10 4 0 6 5 11 10 11 6
0 10 -2 10 -4z m423 -15 c3 -13 0 -18 -7 -15 -7 3 -13 11 -13 19 0 22 14 18
20 -4z m-1348 -9 c-3 -3 -11 0 -18 7 -9 10 -8 11 6 5 10 -3 15 -9 12 -12z
m128 -2 c3 -11 1 -18 -4 -14 -5 3 -9 12 -9 20 0 20 7 17 13 -6z m255 -6 c2
-22 0 -25 -13 -14 -18 15 -20 40 -2 40 7 0 14 -12 15 -26z m92 11 c10 -12 10
-15 -1 -15 -17 0 1 -17 23 -22 11 -2 15 -7 9 -16 -4 -7 -14 -10 -22 -7 -13 5
-39 49 -39 67 0 13 17 9 30 -7z m318 -10 c-3 -3 -9 2 -12 12 -6 14 -5 15 5 6
7 -7 10 -15 7 -18z m-594 9 c9 -3 16 -13 16 -21 0 -8 -5 -11 -11 -7 -6 3 -15
1 -19 -6 -5 -9 -9 -9 -14 -1 -4 6 -3 11 3 11 6 0 8 7 5 15 -7 17 -3 18 20 9z
m681 -4 c-4 -6 -11 -8 -16 -5 -5 4 -9 1 -9 -6 0 -7 -3 -10 -6 -6 -9 9 5 27 22
27 8 0 12 -5 9 -10z m584 -14 c10 -12 8 -13 -8 -9 -12 3 -21 9 -21 14 0 14 16
11 29 -5z m-219 -18 c-14 -5 -27 -12 -30 -17 -3 -4 -16 -1 -30 6 l-25 13 27 0
c15 0 29 4 32 9 3 5 16 7 28 3 21 -5 21 -5 -2 -14z m-800 0 c0 -6 -3 -8 -7 -5
-3 4 -12 2 -20 -4 -13 -11 -19 2 -6 14 11 11 33 8 33 -5z m571 -18 c6 0 7 6 4
13 -4 6 1 3 10 -8 15 -19 15 -20 -6 -23 -24 -4 -53 24 -42 41 3 5 10 3 15 -7
5 -9 14 -16 19 -16z m399 20 c0 -5 -2 -10 -4 -10 -3 0 -8 5 -11 10 -3 6 -1 10
4 10 6 0 11 -4 11 -10z m-1050 -10 c0 -5 6 -10 13 -10 7 0 20 -13 30 -28 l16
-29 -32 -1 c-30 -1 -31 0 -13 14 16 11 17 17 8 26 -7 7 -12 9 -12 4 0 -4 -7
-1 -15 8 -17 17 -19 26 -5 26 6 0 10 -4 10 -10z m374 -5 c3 -8 1 -15 -4 -15
-6 0 -10 7 -10 15 0 8 2 15 4 15 2 0 6 -7 10 -15z m66 6 c0 -5 -11 -8 -25 -8
-13 0 -22 3 -19 8 3 5 14 9 25 9 10 0 19 -4 19 -9z m147 3 c-3 -3 -12 -4 -19
-1 -8 3 -5 6 6 6 11 1 17 -2 13 -5z m-822 -18 c18 -13 18 -14 -3 -25 -13 -7
-28 -9 -34 -5 -8 5 -5 10 8 15 17 7 17 8 1 8 -10 1 -15 6 -12 11 8 13 18 13
40 -4z m565 6 c0 -13 -12 -22 -22 -16 -10 6 -1 24 13 24 5 0 9 -4 9 -8z m-500
-12 c0 -5 -5 -10 -11 -10 -5 0 -7 5 -4 10 3 6 8 10 11 10 2 0 4 -4 4 -10z m52
-2 c-9 -9 -15 -9 -24 0 -9 9 -7 12 12 12 19 0 21 -3 12 -12z m708 8 c0 -3 -4
-8 -10 -11 -5 -3 -10 -1 -10 4 0 6 5 11 10 11 6 0 10 -2 10 -4z m535 -6 c3 -5
2 -10 -4 -10 -5 0 -13 5 -16 10 -3 6 -2 10 4 10 5 0 13 -4 16 -10z m-1465 -14
c0 -8 -7 -17 -16 -20 -25 -10 -34 -7 -28 8 3 9 12 12 21 9 11 -4 14 -2 9 5 -4
7 -2 12 3 12 6 0 11 -6 11 -14z m773 -1 c-3 -9 -8 -14 -10 -11 -3 3 -2 9 2 15
9 16 15 13 8 -4z m-742 -22 c-19 -27 -36 -30 -22 -4 6 10 8 21 5 24 -4 3 3 5
14 4 19 -1 19 -2 3 -24z m784 6 c-4 -5 0 -9 8 -9 8 0 17 -9 20 -20 7 -27 -5
-25 -32 4 -22 23 -21 54 0 40 5 -3 7 -10 4 -15z m235 11 c0 -5 -4 -10 -10 -10
-5 0 -10 5 -10 10 0 6 5 10 10 10 6 0 10 -4 10 -10z m80 -15 c0 -7 -8 -12 -17
-11 -10 2 -23 -4 -30 -13 -18 -23 -16 1 2 26 16 23 45 21 45 -2z m-1255 1 c8
-7 11 -16 8 -20 -4 -3 0 -6 7 -6 11 0 11 -3 3 -11 -9 -9 -18 -8 -38 5 -21 14
-23 19 -13 31 16 18 17 18 33 1z m1145 -1 c7 -9 8 -15 2 -15 -5 0 -12 7 -16
15 -3 8 -4 15 -2 15 2 0 9 -7 16 -15z m-870 -14 c0 -4 -8 -7 -19 -7 -11 0 -17
6 -14 13 5 12 33 7 33 -6z m272 -13 c-8 -8 -9 -4 -5 13 4 13 8 18 11 10 2 -7
-1 -18 -6 -23z m457 -13 c0 -5 -4 -3 -9 5 -5 8 -9 22 -9 30 0 16 17 -16 18
-35z m71 35 c0 -5 -4 -10 -10 -10 -5 0 -10 5 -10 10 0 6 5 10 10 10 6 0 10 -4
10 -10z m287 4 c-3 -3 -12 -4 -19 -1 -8 3 -5 6 6 6 11 1 17 -2 13 -5z m-487
-14 c0 -5 -4 -10 -9 -10 -6 0 -13 5 -16 10 -3 6 1 10 9 10 9 0 16 -4 16 -10z
m420 0 c0 -5 -8 -10 -17 -10 -15 0 -16 2 -3 10 19 12 20 12 20 0z m-1215 -32
c-15 -21 -16 -21 -13 -3 2 11 7 23 13 27 17 12 17 0 0 -24z m95 14 c0 -4 -9
-8 -20 -9 -16 -1 -17 1 -7 12 12 13 27 11 27 -3z m930 2 c0 -8 -5 -12 -10 -9
-6 4 -8 11 -5 16 9 14 15 11 15 -7z m-165 -4 c3 -5 1 -10 -4 -10 -6 0 -11 5
-11 10 0 6 2 10 4 10 3 0 8 -4 11 -10z m125 -5 c0 -12 -19 -12 -23 0 -4 9 -1
12 9 8 7 -3 14 -7 14 -8z m614 6 c3 -5 -1 -11 -9 -14 -9 -4 -12 -1 -8 9 6 16
10 17 17 5z m-1234 -5 c0 -2 -8 -10 -17 -17 -16 -13 -17 -12 -4 4 13 16 21 21
21 13z m995 -6 c-3 -5 -11 -10 -16 -10 -6 0 -7 5 -4 10 3 6 11 10 16 10 6 0 7
-4 4 -10z m-262 -54 c6 -15 -1 -26 -15 -26 -5 0 -6 5 -3 10 3 6 1 10 -5 10 -6
0 -8 5 -5 10 9 14 22 12 28 -4z m362 -34 c-3 -3 -11 0 -18 7 -9 10 -8 11 6 5
10 -3 15 -9 12 -12z m-1610 -72 c-3 -5 -10 -10 -16 -10 -5 0 -9 5 -9 10 0 6 7
10 16 10 8 0 12 -4 9 -10z m1975 -500 c0 -5 -5 -10 -11 -10 -5 0 -7 5 -4 10 3
6 8 10 11 10 2 0 4 -4 4 -10z m-2480 -815 c-7 -9 -15 -13 -17 -11 -7 7 7 26
19 26 6 0 6 -6 -2 -15z m-20 -50 c0 -9 -6 -12 -15 -9 -8 4 -12 10 -9 15 8 14
24 10 24 -6z m2894 -50 c7 -19 -5 -19 -30 0 -19 14 -19 14 2 15 12 0 24 -7 28
-15z m-114 -366 c0 -6 -4 -7 -10 -4 -5 3 -10 11 -10 16 0 6 5 7 10 4 6 -3 10
-11 10 -16z m349 -63 c9 -10 7 -16 -5 -27 -13 -11 -17 -10 -25 2 -21 34 5 56
30 25z m-454 -15 c-3 -6 -11 -11 -16 -11 -5 0 -4 6 3 14 14 16 24 13 13 -3z
m465 -41 c0 -5 -2 -10 -4 -10 -3 0 -8 5 -11 10 -3 6 -1 10 4 10 6 0 11 -4 11
-10z"/>
<path d="M2245 3640 c-3 -5 -1 -10 4 -10 6 0 11 5 11 10 0 6 -2 10 -4 10 -3 0
-8 -4 -11 -10z"/>
<path d="M2330 3639 c0 -4 6 -11 13 -18 10 -8 17 -7 25 1 18 18 14 26 -13 24
-14 0 -25 -4 -25 -7z"/>
<path d="M2434 3629 c-19 -21 -19 -22 2 -15 11 3 28 0 40 -9 28 -21 41 -18 16
4 -12 10 -22 23 -22 30 0 17 -15 13 -36 -10z"/>
<path d="M2750 3630 c0 -5 5 -10 11 -10 5 0 7 5 4 10 -3 6 -8 10 -11 10 -2 0
-4 -4 -4 -10z"/>
<path d="M2064 3621 c4 -5 0 -11 -6 -14 -7 -2 -9 -8 -5 -13 4 -5 12 -2 17 6
13 20 12 30 -1 30 -5 0 -8 -4 -5 -9z"/>
<path d="M3023 3603 c-20 -7 -15 -19 7 -20 11 -1 20 2 20 7 0 12 -13 18 -27
13z"/>
<path d="M2370 3591 c0 -5 7 -14 15 -21 13 -10 15 -9 15 9 0 12 -6 21 -15 21
-8 0 -15 -4 -15 -9z"/>
<path d="M2556 3583 c-6 -14 -5 -15 5 -6 7 7 10 15 7 18 -3 3 -9 -2 -12 -12z"/>
<path d="M4070 3588 c0 -10 -3 -18 -7 -18 -5 0 -8 -33 -8 -73 0 -39 -4 -78
-10 -86 -8 -12 -7 -13 4 -6 9 5 19 2 28 -10 15 -21 14 -23 15 63 0 34 5 65 9
68 15 9 10 24 -7 24 -9 0 -14 6 -11 13 3 8 1 20 -4 28 -7 11 -9 11 -9 -3z"/>
<path d="M2850 3570 c0 -5 5 -10 10 -10 6 0 10 5 10 10 0 6 -4 10 -10 10 -5 0
-10 -4 -10 -10z"/>
<path d="M2040 3560 c-9 -6 -10 -10 -3 -10 6 0 15 5 18 10 8 12 4 12 -15 0z"/>
<path d="M3005 3550 c-3 -5 -1 -10 4 -10 6 0 11 5 11 10 0 6 -2 10 -4 10 -3 0
-8 -4 -11 -10z"/>
<path d="M2985 3520 c3 -5 14 -10 23 -10 15 0 15 2 2 10 -20 13 -33 13 -25 0z"/>
<path d="M2211 3509 l-24 -10 22 -20 c16 -15 26 -18 34 -10 7 7 6 12 -7 17
-13 5 -14 9 -5 20 13 16 12 16 -20 3z"/>
<path d="M3930 3511 c0 -5 4 -12 9 -16 6 -3 6 -18 0 -38 -18 -62 -13 -77 25
-77 33 0 33 0 43 60 5 34 7 62 4 64 -18 10 -81 16 -81 7z"/>
<path d="M2686 3501 c-3 -5 -15 -7 -25 -4 -16 4 -19 1 -14 -16 5 -21 23 -30
23 -11 0 6 7 10 15 10 8 0 15 7 15 15 0 17 -6 19 -14 6z"/>
<path d="M3837 3503 c-9 -9 -9 -61 1 -66 4 -3 7 5 8 16 0 12 4 30 8 40 8 17
-4 24 -17 10z"/>
<path d="M2768 3475 c2 -14 8 -23 12 -20 10 6 1 45 -10 45 -4 0 -5 -11 -2 -25z"/>
<path d="M2872 3486 c7 -8 17 -12 22 -9 4 3 2 9 -5 14 -22 13 -31 11 -17 -5z"/>
<path d="M3900 3490 c-13 -8 -12 -10 3 -10 9 0 17 5 17 10 0 12 -1 12 -20 0z"/>
<path d="M1557 3473 c-4 -3 -7 -20 -8 -37 0 -26 -2 -28 -9 -11 -8 19 -9 19 -9
-2 -1 -16 5 -23 18 -23 11 0 21 -9 25 -22 l6 -23 13 23 c10 17 15 20 25 10 9
-9 12 -9 12 0 0 7 -5 12 -11 12 -8 0 -8 5 1 15 7 8 9 15 6 15 -4 0 -14 -7 -22
-15 -9 -8 -19 -15 -24 -15 -11 0 -23 56 -15 70 7 11 2 14 -8 3z"/>
<path d="M4159 3460 c-8 -81 -7 -90 17 -90 18 0 24 6 24 23 0 26 -39 90 -41
67z"/>
<path d="M1582 3440 c0 -14 2 -19 5 -12 2 6 2 18 0 25 -3 6 -5 1 -5 -13z"/>
<path d="M1500 3350 c0 -5 5 -10 10 -10 6 0 10 5 10 10 0 6 -4 10 -10 10 -5 0
-10 -4 -10 -10z"/>
<path d="M1441 3314 c0 -11 3 -14 6 -6 3 7 2 16 -1 19 -3 4 -6 -2 -5 -13z"/>
<path d="M1546 3295 c-9 -23 -8 -25 9 -25 17 0 19 9 6 28 -7 11 -10 10 -15 -3z"/>
<path d="M1367 3226 c-4 -10 -1 -13 8 -9 12 4 14 -1 9 -26 -4 -20 -2 -31 4
-31 6 0 9 7 5 16 -3 9 0 20 7 24 11 7 10 11 -3 24 -19 20 -23 20 -30 2z"/>
<path d="M1280 3170 c0 -5 7 -7 15 -4 8 4 15 8 15 10 0 2 -7 4 -15 4 -8 0 -15
-4 -15 -10z"/>
<path d="M680 3109 c0 -5 5 -7 10 -4 6 3 10 8 10 11 0 2 -4 4 -10 4 -5 0 -10
-5 -10 -11z"/>
<path d="M615 3090 c3 -5 8 -10 11 -10 2 0 4 5 4 10 0 6 -5 10 -11 10 -5 0 -7
-4 -4 -10z"/>
<path d="M570 3077 c0 -9 -5 -16 -12 -14 -7 1 -13 -10 -14 -28 0 -16 -5 -66
-9 -110 -8 -88 -8 -95 2 -95 9 -1 12 18 19 115 3 44 10 93 16 108 6 15 8 30 4
34 -3 3 -6 -1 -6 -10z"/>
<path d="M449 3033 c-13 -16 -12 -17 4 -4 9 7 17 15 17 17 0 8 -8 3 -21 -13z"/>
<path d="M840 3030 c0 -5 4 -10 9 -10 6 0 13 5 16 10 3 6 -1 10 -9 10 -9 0
-16 -4 -16 -10z"/>
<path d="M1150 3030 c0 -5 5 -10 11 -10 5 0 7 5 4 10 -3 6 -8 10 -11 10 -2 0
-4 -4 -4 -10z"/>
<path d="M750 3015 c0 -11 40 -24 54 -19 26 10 18 19 -19 21 -19 1 -35 0 -35
-2z"/>
<path d="M401 2932 c-2 -23 31 -142 39 -142 5 0 -1 30 -12 68 -24 85 -26 90
-27 74z"/>
<path d="M785 1721 c-2 -5 4 -11 15 -14 11 -3 20 -2 20 3 0 12 -28 21 -35 11z"/>
<path d="M4177 1180 c-4 -14 0 -20 11 -20 14 0 15 -2 2 -9 -8 -6 -19 -7 -25
-4 -7 4 -7 3 0 -4 6 -6 20 -14 31 -17 18 -5 24 -1 32 22 8 24 7 31 -9 40 -26
17 -36 15 -42 -8z"/>
</g>
</svg>
